<?xml version="1.0" encoding="utf-8"?>
<svg viewBox="9.139 119.756 478.922 65.247" xmlns="http://www.w3.org/2000/svg" xmlns:xlink="http://www.w3.org/1999/xlink">
  <defs>
    <linearGradient id="afa9b5ae-644d-481c-a512-b5b81b77e42b" x1="979.44552" y1="738.58992" x2="979.44552" y2="646.78456" gradientUnits="userSpaceOnUse">
      <stop offset="0" stop-color="gray" stop-opacity="0.25"/>
      <stop offset="0.5351" stop-color="gray" stop-opacity="0.12"/>
      <stop offset="1" stop-color="gray" stop-opacity="0.1"/>
    </linearGradient>
    <linearGradient id="bf9220ea-365d-417c-960f-9ff5535a2d22" x1="600.65162" y1="650.10521" x2="600.65162" y2="119" xlink:href="#afa9b5ae-644d-481c-a512-b5b81b77e42b"/>
    <linearGradient id="b4202d31-0de8-4369-b735-813ee4300deb" x1="485.7202" y1="615.59838" x2="485.7202" y2="377.70425" xlink:href="#afa9b5ae-644d-481c-a512-b5b81b77e42b"/>
  </defs>
  <path d="M 211.621 174.679 C 210.79 177.479 208.03 179.229 208.03 179.229 C 208.03 179.229 206.614 176.44 207.443 173.639 C 208.274 170.84 211.032 169.09 211.032 169.09 C 211.032 169.09 212.448 171.879 211.621 174.679 Z" fill="#3f3d56" style=""/>
  <path d="M 211.354 173.975 C 209.136 176.01 208.836 179.115 208.836 179.115 C 208.836 179.115 212.131 178.922 214.349 176.887 C 216.566 174.852 216.865 171.748 216.865 171.748 C 216.865 171.748 213.57 171.94 211.354 173.975 Z" fill="#6c63ff" style=""/>
  <rect x="19.911" y="103.039" width="11.921" height="7.387" rx="15.198" fill="#6c63ff" style="" transform="matrix(1, 0, -0.01805, 1, 184.651474, 74.126266)"/>
  <g opacity="0.7" transform="matrix(0.11149, 0, -0.0019, 0.105274, 196.608719, 119.755508)" style="">
    <path d="M1009.77408,663.17837V646.78456H927.805V722.606a15.984,15.984,0,0,0,15.984,15.984h50.00113a15.984,15.984,0,0,0,15.984-15.984V705.80229a21.312,21.312,0,0,0,0-42.62392Zm0,34.427v-26.2301a13.115,13.115,0,0,1,0,26.2301Z" transform="translate(-114.2798 -119)" fill="url(#afa9b5ae-644d-481c-a512-b5b81b77e42b)"/>
  </g>
  <path d="M 295.115 177.314 C 293.445 177.314 292.37 179.023 293.181 180.387 C 293.99 181.752 296.078 181.752 296.937 180.387 C 297.133 180.076 297.241 179.722 297.247 179.363 C 297.269 178.231 296.313 177.314 295.115 177.314 Z M 295.055 180.623 C 294.027 180.623 293.403 179.571 293.933 178.732 C 294.462 177.892 295.747 177.892 296.244 178.732 C 296.359 178.923 296.418 179.14 296.412 179.363 C 296.4 180.059 295.792 180.623 295.055 180.623 Z" fill="#6c63ff" style=""/>
  <path d="M 295.115 177.314 C 293.445 177.314 292.37 179.023 293.181 180.387 C 293.99 181.752 296.078 181.752 296.937 180.387 C 297.133 180.076 297.241 179.722 297.247 179.363 C 297.269 178.231 296.313 177.314 295.115 177.314 Z M 295.055 180.623 C 294.027 180.623 293.403 179.571 293.933 178.732 C 294.462 177.892 295.747 177.892 296.244 178.732 C 296.359 178.923 296.418 179.14 296.412 179.363 C 296.4 180.059 295.792 180.623 295.055 180.623 Z" opacity="0.1" style=""/>
  <path d="M 286.798 175.738 L 295.143 175.738 C 295.143 175.738 295.143 175.738 295.143 175.738 L 295.003 183.536 C 294.993 184.104 294.496 184.562 293.897 184.562 L 287.725 184.562 C 287.128 184.562 286.648 184.104 286.658 183.536 L 286.798 175.738 C 286.798 175.738 286.798 175.738 286.798 175.738 Z" fill="#6c63ff" style=""/>
  <rect y="9.047" width="478.908" height="0.44" fill="#e0e0e0" style="" x="54.491" transform="matrix(1, 0, -0.032158, 1, -45.047108, 175.515472)"/>
  <g opacity="0.7" transform="matrix(0.109294, 0, -0.001863, 0.105274, 197.270599, 119.755508)" style="">
    <path d="M753.24926,514.26464c-10.41165-37.79179-69.43785-65.38862-113.8507-71.50773.006-.27882.02112-.55536.02112-.83569V409.571c.04726-.01733.09584-.03182.143-.04925v-1.22615A110.93933,110.93933,0,0,0,706.57314,338.064a119.882,119.882,0,0,0,7.14989-15.41561c4.74115-1.72629,8.322-9.54462,8.322-18.93884a33.06945,33.06945,0,0,0-1.3381-9.49537,121.52779,121.52779,0,0,0,.88891-14.41912,120.17944,120.17944,0,0,0-39.6966-89.38228,23.44841,23.44841,0,0,0,.37522-5.87723c-1.00473-15.52708-17.58929-26.07586-33.13284-26.78142a32.8005,32.8005,0,0,0,5.53147-34.63658c-9.91113,14.43929-30.25853,15.97418-47.77168,16.08774,7.55675-2.9265,10.95734-13.39715,6.56225-20.20525-18.30375,24.53386-53.985,29.07689-75.75576,50.59371a63.8633,63.8633,0,0,0-11.77976,16.06661,120.24089,120.24089,0,0,0-45.31946,94.1347,121.55587,121.55587,0,0,0,.87233,14.28918,32.96391,32.96391,0,0,0-1.38014,9.62531c0,9.43741,3.61453,17.27988,8.38807,18.95778a119.88387,119.88387,0,0,0,7.18266,15.46665,110.91725,110.91725,0,0,0,66.54128,69.98516v33.80212c0,.26025.01449.51691.0196.77593-44.58123,6.01408-104.079,33.82817-114.39809,71.92387-8.91132,32.89854-18.42365,69.02824-23.15665,90.24078,40.56827,28.50553,125.69315,45.24341,179.04119,45.24341,50.6869,0,133.53278-15.10715,172.90663-41.06339C772.36065,585.734,762.54821,548.0178,753.24926,514.26464Z" transform="translate(-114.2798 -119)" fill="url(#bf9220ea-365d-417c-960f-9ff5535a2d22)"/>
  </g>
  <path d="M 249.779 174.68 C 255.123 174.68 263.885 173.146 268.084 170.51 C 267.676 168.142 266.709 164.313 265.79 160.885 C 264.617 156.519 256.791 153.491 252.089 153.491 L 247.561 153.491 C 242.843 153.491 234.897 156.537 233.588 160.921 C 232.589 164.262 231.522 167.932 230.984 170.085 C 235.21 172.98 244.155 174.68 249.779 174.68 Z" fill="#6c63ff" style=""/>
  <circle cx="486.8065" cy="164.49683" r="116.23581" fill="#72351c" transform="matrix(0.109294, 0, -0.001863, 0.105274, 197.270599, 119.755508)" style=""/>
  <path d="M 245.888 147.266 L 254.029 147.266 C 254.029 147.266 254.029 147.266 254.029 147.266 L 253.92 153.539 C 253.879 155.702 252.026 157.458 249.778 157.458 L 249.778 157.458 C 247.532 157.458 245.739 155.702 245.777 153.539 L 245.888 147.266 C 245.888 147.266 245.888 147.266 245.888 147.266 Z" opacity="0.1" style=""/>
  <path d="M 247.062 146.974 L 252.866 146.974 C 253.512 146.974 254.026 147.48 254.013 148.101 L 253.924 153.248 C 253.885 155.413 252.031 157.168 249.785 157.168 L 249.782 157.168 C 247.536 157.168 245.744 155.413 245.783 153.248 L 245.875 148.101 C 245.886 147.48 246.418 146.974 247.062 146.974 Z" fill="#fda57d" style=""/>
  <path d="M 245.851 150.226 C 248.459 151.17 251.347 151.178 253.99 150.248 L 254.008 149.284 L 245.867 149.284 Z" opacity="0.1" style=""/>
  <circle cx="486.8065" cy="187.66796" r="106.75269" fill="#fda57d" transform="matrix(0.109294, 0, -0.001863, 0.105274, 197.270599, 119.755508)" style=""/>
  <path d="M 241.995 129.29 C 241.995 129.29 246.743 138.904 260.713 133.321 L 257.569 128.443 L 251.88 126.463 Z" opacity="0.1" style=""/>
  <path d="M 241.999 129.149 C 241.999 129.149 246.745 138.762 260.715 133.178 L 257.573 128.3 L 251.883 126.322 Z" fill="#72351c" style=""/>
  <path d="M 241.966 128.5 C 242.316 127.511 242.904 126.613 243.683 125.883 C 246.018 123.697 249.787 123.237 251.761 120.745 C 252.213 121.436 251.835 122.499 251.033 122.796 C 252.879 122.784 255.027 122.628 256.1 121.164 C 256.606 122.345 256.354 123.714 255.455 124.68 C 257.09 124.751 258.821 125.822 258.899 127.399 C 258.95 128.451 258.249 129.446 257.342 130.048 C 256.434 130.649 255.346 130.926 254.276 131.153 C 251.147 131.814 239.826 134.587 241.966 128.5 Z" fill="#72351c" style=""/>
  <path d="M 261.792 139.611 L 261.482 139.611 L 255.373 144.77 C 249.622 142.156 245.318 144.77 245.318 144.77 L 239.094 139.823 L 238.457 139.901 C 238.557 148.548 248.343 153.69 256.071 149.153 C 259.549 147.113 261.712 143.504 261.792 139.611 Z M 249.98 146.75 C 247.711 146.75 245.878 146.308 245.888 145.762 C 245.898 145.215 247.745 144.77 250.016 144.77 C 252.284 144.77 254.117 145.215 254.107 145.762 C 254.099 146.308 252.251 146.75 249.98 146.75 Z" fill="#72351c" style=""/>
  <ellipse cx="200.298" cy="153.805" rx="1.085" ry="1.959" fill="#fda57d" style="" transform="matrix(1, 0, -0.017696, 1, 40.877995, -14.303858)"/>
  <ellipse cx="287.488" cy="153.805" rx="1.085" ry="1.959" fill="#fda57d" style="" transform="matrix(1, 0, -0.017696, 1, -22.974096, -14.303858)"/>
  <g opacity="0.7" transform="matrix(0.11149, 0, -0.0019, 0.105274, 196.608719, 119.755508)" style="">
    <rect x="279.15815" y="377.70425" width="413.12412" height="237.89413" rx="14.5" fill="url(#b4202d31-0de8-4369-b735-813ee4300deb)"/>
  </g>
  <rect x="44.28" y="46.677" width="44.391" height="24.582" rx="26.835" fill="#535461" style="" transform="matrix(1, 0, -0.01805, 1, 184.335663, 112.836914)"/>
  <circle cx="485.7202" cy="498.84591" r="13.47144" fill="#fff" transform="matrix(0.109294, 0, -0.001863, 0.105274, 197.270599, 119.755508)" style=""/>
  <path d="M 293.641 175.738 L 293.509 183.027 C 293.494 183.874 292.754 184.562 291.856 184.562 L 292.69 184.562 C 293.588 184.562 294.329 183.874 294.345 183.027 L 294.476 175.738 Z" opacity="0.1" style=""/>
  <path d="M 287.402 169.865 C 287.264 169.888 287.106 169.924 287.039 170.041 C 286.928 170.229 287.118 170.439 287.293 170.567 C 287.617 170.807 287.957 171.04 288.174 171.371 C 288.393 171.704 288.455 172.167 288.205 172.485 C 287.879 172.9 287.118 172.99 287.036 173.501 C 286.984 173.829 287.271 174.109 287.568 174.274 C 288.299 174.681 289.246 174.788 289.768 175.425 C 289.997 174.988 290.495 174.735 290.989 174.628 C 291.483 174.518 291.995 174.528 292.494 174.454 C 292.656 174.431 292.839 174.383 292.914 174.242 C 293.059 173.97 292.666 173.643 292.809 173.368 C 292.916 173.16 293.224 173.177 293.449 173.092 C 293.815 172.958 293.975 172.504 293.876 172.142 C 293.781 171.779 293.492 171.494 293.189 171.262 C 292.372 170.635 291.382 170.265 290.377 170 C 289.91 169.876 289.365 169.683 288.876 169.664 C 288.408 169.647 287.868 169.788 287.402 169.865 Z" fill="#eee" style=""/>
</svg>