<?xml version="1.0" encoding="utf-8"?>
<svg viewBox="45.566 198.865 478.953 68.009" xmlns="http://www.w3.org/2000/svg" xmlns:xlink="http://www.w3.org/1999/xlink">
  <defs>
    <linearGradient id="afa9b5ae-644d-481c-a512-b5b81b77e42b" x1="979.44552" y1="738.58992" x2="979.44552" y2="646.78456" gradientUnits="userSpaceOnUse">
      <stop offset="0" stop-color="gray" stop-opacity="0.25"/>
      <stop offset="0.5351" stop-color="gray" stop-opacity="0.12"/>
      <stop offset="1" stop-color="gray" stop-opacity="0.1"/>
    </linearGradient>
    <linearGradient id="bf9220ea-365d-417c-960f-9ff5535a2d22" x1="600.65162" y1="650.10521" x2="600.65162" y2="119" xlink:href="#afa9b5ae-644d-481c-a512-b5b81b77e42b"/>
    <linearGradient id="b4202d31-0de8-4369-b735-813ee4300deb" x1="485.7202" y1="615.59838" x2="485.7202" y2="377.70425" xlink:href="#afa9b5ae-644d-481c-a512-b5b81b77e42b"/>
  </defs>
  <path d="M 248.292 255.482 C 247.461 258.282 244.701 260.032 244.701 260.032 C 244.701 260.032 243.285 257.243 244.114 254.442 C 244.945 251.643 247.703 249.893 247.703 249.893 C 247.703 249.893 249.119 252.682 248.292 255.482 Z" fill="#3f3d56" style=""/>
  <path d="M 247.121 254.891 C 244.903 256.926 244.603 260.031 244.603 260.031 C 244.603 260.031 247.898 259.838 250.116 257.803 C 252.333 255.768 252.632 252.664 252.632 252.664 C 252.632 252.664 249.337 252.856 247.121 254.891 Z" fill="#6c63ff" style=""/>
  <rect x="19.911" y="66.799" width="11.921" height="4.789" rx="15.198" fill="#6c63ff" style="" transform="matrix(1, 0, -0.01805, 1, 220.847339, 192.412662)"/>
  <g opacity="0.7" transform="matrix(0.11149, 0, -0.0019, 0.105274, 233.05376, 198.864795)" style="">
    <path d="M1009.77408,663.17837V646.78456H927.805V722.606a15.984,15.984,0,0,0,15.984,15.984h50.00113a15.984,15.984,0,0,0,15.984-15.984V705.80229a21.312,21.312,0,0,0,0-42.62392Zm0,34.427v-26.2301a13.115,13.115,0,0,1,0,26.2301Z" transform="translate(-114.2798 -119)" fill="url(#afa9b5ae-644d-481c-a512-b5b81b77e42b)"/>
  </g>
  <path d="M 331.56 256.423 C 329.89 256.423 328.815 258.132 329.626 259.496 C 330.435 260.861 332.523 260.861 333.382 259.496 C 333.578 259.185 333.686 258.831 333.692 258.472 C 333.714 257.34 332.758 256.423 331.56 256.423 Z M 331.5 259.732 C 330.472 259.732 329.848 258.68 330.378 257.841 C 330.907 257.001 332.192 257.001 332.689 257.841 C 332.804 258.032 332.863 258.249 332.857 258.472 C 332.845 259.168 332.237 259.732 331.5 259.732 Z" fill="#6c63ff" style=""/>
  <path d="M 331.56 256.423 C 329.89 256.423 328.815 258.132 329.626 259.496 C 330.435 260.861 332.523 260.861 333.382 259.496 C 333.578 259.185 333.686 258.831 333.692 258.472 C 333.714 257.34 332.758 256.423 331.56 256.423 Z M 331.5 259.732 C 330.472 259.732 329.848 258.68 330.378 257.841 C 330.907 257.001 332.192 257.001 332.689 257.841 C 332.804 258.032 332.863 258.249 332.857 258.472 C 332.845 259.168 332.237 259.732 331.5 259.732 Z" opacity="0.1" style=""/>
  <path d="M 323.243 254.847 L 331.588 254.847 C 331.588 254.847 331.588 254.847 331.588 254.847 L 331.448 262.645 C 331.438 263.213 330.941 263.671 330.342 263.671 L 324.17 263.671 C 323.573 263.671 323.093 263.213 323.103 262.645 L 323.243 254.847 C 323.243 254.847 323.243 254.847 323.243 254.847 Z" fill="#6c63ff" style=""/>
  <rect y="28.65" width="478.908" height="1.394" fill="#e0e0e0" style="" x="54.491" transform="matrix(1, 0, -0.032158, 1, -7.959132, 234.631595)"/>
  <g opacity="0.7" transform="matrix(0.109294, 0, -0.001863, 0.105274, 233.715641, 198.864795)" style="">
    <path d="M753.24926,514.26464c-10.41165-37.79179-69.43785-65.38862-113.8507-71.50773.006-.27882.02112-.55536.02112-.83569V409.571c.04726-.01733.09584-.03182.143-.04925v-1.22615A110.93933,110.93933,0,0,0,706.57314,338.064a119.882,119.882,0,0,0,7.14989-15.41561c4.74115-1.72629,8.322-9.54462,8.322-18.93884a33.06945,33.06945,0,0,0-1.3381-9.49537,121.52779,121.52779,0,0,0,.88891-14.41912,120.17944,120.17944,0,0,0-39.6966-89.38228,23.44841,23.44841,0,0,0,.37522-5.87723c-1.00473-15.52708-17.58929-26.07586-33.13284-26.78142a32.8005,32.8005,0,0,0,5.53147-34.63658c-9.91113,14.43929-30.25853,15.97418-47.77168,16.08774,7.55675-2.9265,10.95734-13.39715,6.56225-20.20525-18.30375,24.53386-53.985,29.07689-75.75576,50.59371a63.8633,63.8633,0,0,0-11.77976,16.06661,120.24089,120.24089,0,0,0-45.31946,94.1347,121.55587,121.55587,0,0,0,.87233,14.28918,32.96391,32.96391,0,0,0-1.38014,9.62531c0,9.43741,3.61453,17.27988,8.38807,18.95778a119.88387,119.88387,0,0,0,7.18266,15.46665,110.91725,110.91725,0,0,0,66.54128,69.98516v33.80212c0,.26025.01449.51691.0196.77593-44.58123,6.01408-104.079,33.82817-114.39809,71.92387-8.91132,32.89854-18.42365,69.02824-23.15665,90.24078,40.56827,28.50553,125.69315,45.24341,179.04119,45.24341,50.6869,0,133.53278-15.10715,172.90663-41.06339C772.36065,585.734,762.54821,548.0178,753.24926,514.26464Z" transform="translate(-114.2798 -119)" fill="url(#bf9220ea-365d-417c-960f-9ff5535a2d22)"/>
  </g>
  <path d="M 286.224 253.789 C 291.568 253.789 300.33 252.255 304.529 249.619 C 304.121 247.251 303.154 243.422 302.235 239.994 C 301.062 235.628 293.236 232.6 288.534 232.6 L 284.006 232.6 C 279.288 232.6 271.342 235.646 270.033 240.03 C 269.034 243.371 267.967 247.041 267.429 249.194 C 271.655 252.089 280.6 253.789 286.224 253.789 Z" fill="#6c63ff" style=""/>
  <circle cx="486.8065" cy="164.49683" r="116.23581" fill="#72351c" transform="matrix(0.109294, 0, -0.001863, 0.105274, 233.715641, 198.864795)" style=""/>
  <path d="M 282.333 226.375 L 290.474 226.375 C 290.474 226.375 290.474 226.375 290.474 226.375 L 290.365 232.648 C 290.324 234.811 288.471 236.567 286.223 236.567 L 286.223 236.567 C 283.977 236.567 282.184 234.811 282.222 232.648 L 282.333 226.375 C 282.333 226.375 282.333 226.375 282.333 226.375 Z" opacity="0.1" style=""/>
  <path d="M 283.507 226.083 L 289.311 226.083 C 289.957 226.083 290.471 226.589 290.458 227.21 L 290.369 232.357 C 290.33 234.522 288.476 236.277 286.23 236.277 L 286.227 236.277 C 283.981 236.277 282.189 234.522 282.228 232.357 L 282.32 227.21 C 282.331 226.589 282.863 226.083 283.507 226.083 Z" fill="#fda57d" style=""/>
  <path d="M 282.296 229.335 C 284.904 230.279 287.792 230.287 290.435 229.357 L 290.453 228.393 L 282.312 228.393 Z" opacity="0.1" style=""/>
  <circle cx="486.8065" cy="187.66796" r="106.75269" fill="#fda57d" transform="matrix(0.109294, 0, -0.001863, 0.105274, 233.715641, 198.864795)" style=""/>
  <path d="M 278.44 208.399 C 278.44 208.399 283.188 218.013 297.158 212.43 L 294.014 207.552 L 288.325 205.572 Z" opacity="0.1" style=""/>
  <path d="M 278.444 208.258 C 278.444 208.258 283.19 217.871 297.16 212.287 L 294.018 207.409 L 288.328 205.431 Z" fill="#72351c" style=""/>
  <path d="M 278.411 207.609 C 278.761 206.62 279.349 205.722 280.128 204.992 C 282.463 202.806 286.232 202.346 288.206 199.854 C 288.658 200.545 288.28 201.608 287.478 201.905 C 289.324 201.893 291.472 201.737 292.545 200.273 C 293.051 201.454 292.799 202.823 291.9 203.789 C 293.535 203.86 295.266 204.931 295.344 206.508 C 295.395 207.56 294.694 208.555 293.787 209.157 C 292.879 209.758 291.791 210.035 290.721 210.262 C 287.592 210.923 276.271 213.696 278.411 207.609 Z" fill="#72351c" style=""/>
  <path d="M 298.237 218.72 L 297.927 218.72 L 291.818 223.879 C 286.067 221.265 281.763 223.879 281.763 223.879 L 275.539 218.932 L 274.902 219.01 C 275.002 227.657 284.788 232.799 292.516 228.262 C 295.994 226.222 298.157 222.613 298.237 218.72 Z M 286.425 225.859 C 284.156 225.859 282.323 225.417 282.333 224.871 C 282.343 224.324 284.19 223.879 286.461 223.879 C 288.729 223.879 290.562 224.324 290.552 224.871 C 290.544 225.417 288.696 225.859 286.425 225.859 Z" fill="#72351c" style=""/>
  <ellipse cx="200.298" cy="153.805" rx="1.085" ry="1.959" fill="#fda57d" style="" transform="matrix(1, 0, -0.017696, 1, 77.32303, 64.805429)"/>
  <ellipse cx="287.488" cy="153.805" rx="1.085" ry="1.959" fill="#fda57d" style="" transform="matrix(1, 0, -0.017696, 1, 13.470938, 64.805429)"/>
  <g opacity="0.7" transform="matrix(0.11149, 0, -0.0019, 0.105274, 233.05376, 198.864795)" style="">
    <rect x="279.15815" y="377.70425" width="413.12412" height="237.89413" rx="14.5" fill="url(#b4202d31-0de8-4369-b735-813ee4300deb)"/>
  </g>
  <rect x="44.28" y="46.677" width="44.391" height="24.582" rx="26.835" fill="#535461" style="" transform="matrix(1, 0, -0.01805, 1, 220.847339, 192.412662)"/>
  <circle cx="485.7202" cy="498.84591" r="13.47144" fill="#fff" transform="matrix(0.109294, 0, -0.001863, 0.105274, 233.715641, 198.864795)" style=""/>
  <rect x="16.913" y="108.006" width="99.128" height="2.05" fill="#e0e0e0" style="" transform="matrix(1, 0, -0.01805, 1, 221.222553, 156.817431)"/>
  <rect x="16.913" y="155.923" width="99.128" height="0.985" opacity="0.1" style="" transform="matrix(1, 0, 0.01805, -1, 216.684192, 421.894263)"/>
  <path d="M 330.086 254.847 L 329.954 262.136 C 329.939 262.983 329.199 263.671 328.301 263.671 L 329.135 263.671 C 330.033 263.671 330.774 262.983 330.79 262.136 L 330.921 254.847 Z" opacity="0.1" style=""/>
  <path d="M 323.847 248.974 C 323.709 248.997 323.551 249.033 323.484 249.15 C 323.373 249.338 323.563 249.548 323.738 249.676 C 324.062 249.916 324.402 250.149 324.619 250.48 C 324.838 250.813 324.9 251.276 324.65 251.594 C 324.324 252.009 323.563 252.099 323.481 252.61 C 323.429 252.938 323.716 253.218 324.013 253.383 C 324.744 253.79 325.691 253.897 326.213 254.534 C 326.442 254.097 326.94 253.844 327.434 253.737 C 327.928 253.627 328.44 253.637 328.939 253.563 C 329.101 253.54 329.284 253.492 329.359 253.351 C 329.504 253.079 329.111 252.752 329.254 252.477 C 329.361 252.269 329.669 252.286 329.894 252.201 C 330.26 252.067 330.42 251.613 330.321 251.251 C 330.226 250.888 329.937 250.603 329.634 250.371 C 328.817 249.744 327.827 249.374 326.822 249.109 C 326.355 248.985 325.81 248.792 325.321 248.773 C 324.853 248.756 324.313 248.897 323.847 248.974 Z" fill="#eee" style=""/>
</svg>