<?xml version="1.0" encoding="utf-8"?>
<svg viewBox="2.07 371.899 471.096 109.968" xmlns="http://www.w3.org/2000/svg">
  <path d="M 455.092 429.852 C 454.696 428.701 455.331 427.456 456.516 427.06 C 456.633 427.022 456.752 426.994 456.874 426.976 L 458.101 422.108 L 461.3 422.117 L 459.469 428.969 C 459.56 429.978 458.929 430.919 457.939 431.249 C 456.753 431.631 455.473 431.003 455.092 429.852 Z" fill="#9f616a" style=""/>
  <path d="M 460.492 426.701 L 455.593 426.369 L 457.966 412.502 L 456.456 397.233 L 461.409 395.242 L 464.711 412.198 L 464.702 412.229 Z" fill="#2f2e41" style=""/>
  <path d="M 422.611 425.076 C 422.588 423.866 423.584 422.866 424.836 422.844 C 424.959 422.843 425.081 422.852 425.203 422.871 L 427.887 418.602 L 430.93 419.569 L 427.054 425.545 C 426.688 427.18 424.629 427.819 423.348 426.695 C 422.876 426.281 422.608 425.693 422.611 425.076 Z" fill="#9f616a" style=""/>
  <polygon points="437.719 478.457 435.113 478.457 433.873 468.599 437.72 468.599 437.719 478.457" fill="#9f616a" style=""/>
  <path d="M 438.384 480.935 L 429.981 480.934 L 429.981 480.83 C 429.977 479.981 430.322 479.166 430.938 478.562 C 431.547 477.96 432.381 477.621 433.251 477.623 L 433.251 477.623 L 438.384 477.623 Z" fill="#2f2e41" style=""/>
  <polygon points="455.9 478.457 453.294 478.457 452.055 468.599 455.901 468.599 455.9 478.457" fill="#9f616a" style=""/>
  <path d="M 456.565 480.935 L 448.162 480.934 L 448.162 480.83 C 448.158 479.981 448.503 479.166 449.12 478.562 C 449.728 477.96 450.562 477.621 451.433 477.623 L 451.433 477.623 L 456.565 477.623 Z" fill="#2f2e41" style=""/>
  <ellipse cx="453.422" cy="379.814" rx="6.191" ry="6.072" fill="#9f616a" style=""/>
  <path d="M 451.331 379.481 C 449.407 380.199 447.23 379.442 446.218 377.703 C 445.302 375.903 445.855 373.726 447.529 372.541 C 449.177 371.46 451.638 371.817 453.236 373.072 C 455.448 372.086 458.066 372.619 459.68 374.383 C 461.222 376.133 461.391 378.91 460.267 380.949 C 459.269 383.11 459.429 385.607 460.694 387.632 C 460.21 387.613 459.146 387.525 457.814 387.412 C 457.429 387.38 457.262 386.27 456.84 386.234 C 456.467 386.203 455.842 387.246 455.451 387.213 C 452.559 386.974 449.321 386.73 447.853 386.778 C 448.883 384.29 450.044 381.854 451.331 379.481 Z" fill="#2f2e41" style=""/>
  <path d="M 458.17 422.589 C 458.17 422.589 460.182 424.623 458.954 435.129 L 458.105 457.436 L 456.603 477.188 L 451.771 476.873 L 447.527 431.411 L 441.585 448.047 L 438.385 475.55 L 433.749 475.235 L 432.957 447.885 L 434.989 426.748 Z" fill="#2f2e41" style=""/>
  <path d="M 438.255 428.02 C 435.782 428.02 434.787 427.729 434.714 427.707 L 434.599 427.671 L 434.619 427.555 C 434.636 427.459 436.297 417.963 438.576 412.977 L 440.178 392.757 C 440.266 391.528 441.217 390.518 442.475 390.321 L 442.497 390.455 L 442.475 390.321 L 446.551 389.694 L 449.045 387.54 L 455.019 387.864 L 455.545 390.342 C 456.26 390.538 460.974 391.955 461.441 395.348 L 461.447 395.391 L 461.427 395.429 L 452.79 411.724 C 453.519 412.43 459.288 418.241 459.679 425.67 L 459.689 425.848 L 459.511 425.808 C 459.494 425.805 457.648 425.461 447.941 427.07 C 443.452 427.814 440.332 428.02 438.255 428.02 Z" fill="#2f2e41" style=""/>
  <path d="M 428.68 424.978 L 425.159 422.319 L 433.017 406.902 L 440.325 391.791 C 440.699 391.005 441.813 390.905 442.33 391.611 C 442.411 391.722 442.471 391.846 442.506 391.977 L 444.315 398.413 L 438.658 412.846 Z" fill="#2f2e41" style=""/>
  <path d="M 471.308 481.867 L 3.326 481.867 C 2.361 481.867 1.756 481.402 2.24 481.032 C 2.465 480.86 2.876 480.753 3.326 480.753 L 471.914 480.753 C 472.604 480.753 473.166 481.003 473.166 481.311 C 473.166 481.618 471.999 481.867 471.308 481.867 Z" fill="#cbcbcb" style=""/>
</svg>